<svg xmlns="http://www.w3.org/2000/svg" viewBox="0 0 59 56.71"><title>add shopping cart-1</title><g id="Layer_2" data-name="Layer 2"><g id="Layer_1-2" data-name="Layer 1"><g id="add_shopping_cart-1" data-name="add shopping cart-1"><path d="M42.38,41.33h-19a10.84,10.84,0,0,1-10.62-8.77L9.06,13.27A4.89,4.89,0,0,0,5.23,9.39l-2.88-.6A3,3,0,0,1,3.55,3l2.88.6a10.78,10.78,0,0,1,8.42,8.54l3.73,19.29a4.93,4.93,0,0,0,4.83,4h19A4.93,4.93,0,0,0,47,32.27L53.3,15.78a2.95,2.95,0,1,1,5.5,2.12L52.48,34.38A10.87,10.87,0,0,1,42.38,41.33Z"/><circle cx="42.11" cy="51.79" r="4.92"/><circle cx="22.79" cy="51.79" r="4.92"/><path d="M45.33,11.24a3,3,0,0,0-4.17,0l-4.7,4.7V3a2.95,2.95,0,0,0-5.9,0v13l-4.7-4.7a3,3,0,1,0-4.17,4.18l9.73,9.73h0a2.61,2.61,0,0,0,.44.37l.16.08a2,2,0,0,0,.35.19l.2.06.35.11a3.39,3.39,0,0,0,1.16,0l.36-.11.2-.06c.13-.06.25-.13.37-.2l.13-.07a4,4,0,0,0,.45-.37l9.73-9.73A3,3,0,0,0,45.33,11.24Z"/></g></g></g></svg>