<svg viewBox="0 0 33 39" version="1.1" xmlns="http://www.w3.org/2000/svg" >
    <g id="v6-(Animator-launch-Mar-'19)" stroke="none" strokeWidth="1" fill="none" fillRule="evenodd">
        <g id="Homepage---Look-and-feel" transform="translate(-141.000000, -4916.000000)" fill="#77C158">
            <g id="Reads-and-writes-code" transform="translate(119.000000, 4464.000000)">
                <g id="Export-to-Lottie" transform="translate(0.000000, 144.000000)">
                    <g id="Export-to-Lottie-icons" transform="translate(0.000000, 5.532644)">
                        <g id="Android" transform="translate(0.000000, 282.928000)">
                            <path d="M31.7135981,50.1179194 L29.058476,50.1179194 C28.3724115,50.1179194 27.8155471,49.5654536 27.8155471,48.8840484 L27.8155471,39.9687137 L27.7962913,39.9687137 L27.7962913,31.4688851 L48.5872423,31.4688851 L48.5872423,39.9687137 L48.5673654,39.9687137 L48.5673654,48.8840484 C48.5673654,49.5654536 48.0111221,50.1179194 47.3250577,50.1179194 L44.6699356,50.1179194 L44.6699356,55.6040181 C44.6699356,56.8169133 43.6798163,57.8 42.4586279,57.8 C41.2374394,57.8 40.2476308,56.8169133 40.2476308,55.6040181 L40.2476308,50.1179194 L36.1355923,50.1179194 L36.1355923,55.6040181 C36.1355923,56.8169133 35.1457837,57.8 33.9245952,57.8 C32.7037173,57.8 31.7135981,56.8169133 31.7135981,55.6040181 L31.7135981,50.1179194 Z M43.2071443,22.5096566 C48.2964112,24.7769779 48.5012125,30.2529052 48.5012125,30.2529052 L27.8823212,30.2529052 C27.8823212,30.2529052 28.0274274,24.7277532 33.1541425,22.4793466 L31.3992942,20.0197964 C31.3626462,19.9679738 31.4157548,19.8683387 31.5182452,19.7961573 C31.6194933,19.7245927 31.7325433,19.707627 31.7695019,19.7594496 L33.5840976,22.3031504 C34.8288002,21.8276661 36.3450155,21.5389006 38.1919221,21.5445524 C40.0283072,21.550169 41.5379242,21.8482908 42.7788529,22.331133 L44.6134106,19.7594496 C44.6503692,19.707627 44.7634192,19.7245927 44.8649779,19.7961573 C44.9674683,19.8683387 45.0205769,19.9679738 44.9836183,20.0197964 L43.2071443,22.5096566 Z M34.9078817,25.7918448 C34.9078817,25.1110565 34.351949,24.5592077 33.6668163,24.5592077 C32.9813731,24.5592077 32.425751,25.1110565 32.425751,25.7918448 C32.425751,26.4726331 32.9813731,27.0244819 33.6668163,27.0244819 C34.351949,27.0244819 34.9078817,26.4726331 34.9078817,25.7918448 Z M43.9577827,25.7918448 C43.9577827,25.1110565 43.4015394,24.5592077 42.7167173,24.5592077 C42.031274,24.5592077 41.4756519,25.1110565 41.4756519,25.7918448 C41.4756519,26.4726331 42.031274,27.0244819 42.7167173,27.0244819 C43.4015394,27.0244819 43.9577827,26.4726331 43.9577827,25.7918448 Z M54.1179962,42.8312944 C54.1179962,44.0441895 53.1278769,45.0272762 51.9066885,45.0272762 C50.6855,45.0272762 49.6956913,44.0441895 49.6956913,42.8312944 L49.6956913,32.9624859 C49.6956913,31.7495907 50.6855,30.7661956 51.9066885,30.7661956 C53.1278769,30.7661956 54.1179962,31.7495907 54.1179962,32.9624859 L54.1179962,42.8312944 Z M26.6878423,42.8312944 C26.6878423,44.0441895 25.6980337,45.0272762 24.4765346,45.0272762 C23.2556567,45.0272762 22.2655375,44.0441895 22.2655375,42.8312944 L22.2655375,32.9624859 C22.2655375,31.7495907 23.2556567,30.7661956 24.4765346,30.7661956 C25.6980337,30.7661956 26.6878423,31.7495907 26.6878423,32.9624859 L26.6878423,42.8312944 Z" id="Android-logo"></path>
                        </g>
                    </g>
                </g>
            </g>
        </g>
    </g>
</svg>