<svg xmlns="http://www.w3.org/2000/svg" viewBox="0 0 57.91 59"><title>store</title><g id="Layer_2" data-name="Layer 2"><g id="Layer_1-2" data-name="Layer 1"><g id="store"><path d="M56.48,11,53.05,5.1A10.39,10.39,0,0,0,44.14,0H13.77A10.37,10.37,0,0,0,4.86,5.1L1.42,11A10.32,10.32,0,0,0,0,16.18v1.54A9.1,9.1,0,0,0,15.73,24,9.07,9.07,0,0,0,29,24a9.08,9.08,0,0,0,13.23,0,9.1,9.1,0,0,0,15.73-6.26V16.18A10.33,10.33,0,0,0,56.48,11Z"/><path d="M42.18,30.18a14,14,0,0,1-13.23,0,14,14,0,0,1-13.22,0,14,14,0,0,1-10.83,1V48.66A10.35,10.35,0,0,0,15.24,59H42.67A10.35,10.35,0,0,0,53,48.66V31.19a14,14,0,0,1-10.83-1ZM35.44,52.25A1.75,1.75,0,0,1,33.69,54H23.19a1.75,1.75,0,0,1-1.75-1.75V47.39A7.16,7.16,0,0,1,28,40.16a7,7,0,0,1,7.46,7Z"/></g></g></g></svg>