<svg width="48" height="48" viewBox="0 0 48 48" fill="none" xmlns="http://www.w3.org/2000/svg">
<path d="M30.9984 1.58641V13.0004H42.4124L30.9984 1.58641Z" fill="url(#paint0_linear_401_2)"/>
<path d="M29.9984 15.0004C29.7331 15.0004 29.4788 14.8951 29.2912 14.7075C29.1037 14.52 28.9984 14.2656 28.9984 14.0004V1.00041H6.99835C6.46792 1.00041 5.95921 1.21113 5.58414 1.5862C5.20907 1.96127 4.99835 2.46998 4.99835 3.00041V45.0004C4.99835 45.5309 5.20907 46.0396 5.58414 46.4146C5.95921 46.7897 6.46792 47.0004 6.99835 47.0004H40.9984C41.5288 47.0004 42.0375 46.7897 42.4126 46.4146C42.7876 46.0396 42.9984 45.5309 42.9984 45.0004V15.0004H29.9984ZM13.9984 15.0004H21.9984C22.2636 15.0004 22.5179 15.1058 22.7055 15.2933C22.893 15.4808 22.9984 15.7352 22.9984 16.0004C22.9984 16.2656 22.893 16.52 22.7055 16.7075C22.5179 16.8951 22.2636 17.0004 21.9984 17.0004H13.9984C13.7331 17.0004 13.4788 16.8951 13.2912 16.7075C13.1037 16.52 12.9984 16.2656 12.9984 16.0004C12.9984 15.7352 13.1037 15.4808 13.2912 15.2933C13.4788 15.1058 13.7331 15.0004 13.9984 15.0004ZM33.9984 37.0004H13.9984C13.7331 37.0004 13.4788 36.8951 13.2912 36.7075C13.1037 36.52 12.9984 36.2656 12.9984 36.0004C12.9984 35.7352 13.1037 35.4808 13.2912 35.2933C13.4788 35.1058 13.7331 35.0004 13.9984 35.0004H33.9984C34.2636 35.0004 34.5179 35.1058 34.7055 35.2933C34.893 35.4808 34.9984 35.7352 34.9984 36.0004C34.9984 36.2656 34.893 36.52 34.7055 36.7075C34.5179 36.8951 34.2636 37.0004 33.9984 37.0004ZM33.9984 27.0004H13.9984C13.7331 27.0004 13.4788 26.8951 13.2912 26.7075C13.1037 26.52 12.9984 26.2656 12.9984 26.0004C12.9984 25.7352 13.1037 25.4808 13.2912 25.2933C13.4788 25.1058 13.7331 25.0004 13.9984 25.0004H33.9984C34.2636 25.0004 34.5179 25.1058 34.7055 25.2933C34.893 25.4808 34.9984 25.7352 34.9984 26.0004C34.9984 26.2656 34.893 26.52 34.7055 26.7075C34.5179 26.8951 34.2636 27.0004 33.9984 27.0004Z" fill="url(#paint1_linear_401_2)"/>
<defs>
<linearGradient id="paint0_linear_401_2" x1="23.9984" y1="1.00041" x2="23.9984" y2="47.0004" gradientUnits="userSpaceOnUse">
<stop stop-color="#EDFFF6"/>
<stop offset="1" stop-color="#C1FFE0"/>
</linearGradient>
<linearGradient id="paint1_linear_401_2" x1="23.9984" y1="1.00041" x2="23.9984" y2="47.0004" gradientUnits="userSpaceOnUse">
<stop stop-color="#EDFFF6"/>
<stop offset="1" stop-color="#C1FFE0"/>
</linearGradient>
</defs>
</svg>
