<?xml version="1.0" encoding="UTF-8"?>
<svg width="77px" height="77px" viewBox="0 0 77 77" version="1.1" xmlns="http://www.w3.org/2000/svg" xmlns:xlink="http://www.w3.org/1999/xlink">
    <title>Compass</title>
    <defs>
        <circle id="path-1" cx="36.5" cy="36.5" r="36.5"></circle>
        <filter x="-4.8%" y="-3.4%" width="109.6%" height="109.6%" filterUnits="objectBoundingBox" id="filter-2">
            <feOffset dx="0" dy="1" in="SourceAlpha" result="shadowOffsetOuter1"></feOffset>
            <feGaussianBlur stdDeviation="1" in="shadowOffsetOuter1" result="shadowBlurOuter1"></feGaussianBlur>
            <feComposite in="shadowBlurOuter1" in2="SourceAlpha" operator="out" result="shadowBlurOuter1"></feComposite>
            <feColorMatrix values="0 0 0 0 0   0 0 0 0 0   0 0 0 0 0  0 0 0 0.1 0" type="matrix" in="shadowBlurOuter1"></feColorMatrix>
        </filter>
        <circle id="path-3" cx="24.6162791" cy="24.6162791" r="24.6162791"></circle>
        <rect id="path-5" x="0" y="0" width="231.732558" height="268.232558"></rect>
    </defs>
    <g id="Screens" stroke="none" stroke-width="1" fill="none" fill-rule="evenodd">
        <g id="2c---Guided---Get-Started" transform="translate(-103.000000, -531.000000)">
            <g id="Guided-Estimator" transform="translate(105.000000, 532.000000)">
                <g id="Compass">
                    <g id="Oval">
                        <use fill="black" fill-opacity="1" filter="url(#filter-2)" xlink:href="#path-1"></use>
                        <circle stroke="#C5B4D8" stroke-width="1" stroke-linejoin="square" fill="#FFFFFF" fill-rule="evenodd" cx="36.5" cy="36.5" r="36"></circle>
                    </g>
                    <g id="Group-7" transform="translate(11.883721, 11.883721)">
                        <mask id="mask-4" fill="white">
                            <use xlink:href="#path-3"></use>
                        </mask>
                        <use id="Oval" stroke="#E3DBEB" xlink:href="#path-3"></use>
                        <g id="Line-Art-/-Topography-(Dark)" opacity="0.6" mask="url(#mask-4)">
                            <g transform="translate(-92.523256, -157.883721)">
                                <mask id="mask-6" fill="white">
                                    <use xlink:href="#path-5"></use>
                                </mask>
                                <g id="Rectangle" stroke="none" fill="none"></g>
                                <path d="M123.986153,272.064452 C119.812026,269.402563 115.540854,266.741951 111.41025,264.168835 C104.319469,259.751939 96.986957,255.184321 89.9449927,250.482588 C70.4077031,237.437545 17.7250116,204.296773 -0.453642949,193.026535 C-1.96931504,192.087083 -3.57556279,191.047362 -5.50823585,189.754098 L-5.81701655,190.298227 C-3.8778738,191.594684 -2.26692081,192.638237 -0.745367185,193.580883 C17.4309348,204.849205 70.1048039,237.985505 89.6373883,251.026078 C96.6864104,255.73356 104.02304,260.303093 111.11735,264.722544 C115.247365,267.295021 119.516773,269.954356 123.688547,272.614967 L123.986153,272.064452 Z M132.932559,272.063175 C128.620804,269.368715 124.1973,266.703633 119.919658,264.126045 C112.452459,259.626125 104.731177,254.973567 97.3416137,250.011904 C77.578473,236.743333 26.095027,203.144651 5.45847805,189.873525 C2.01130921,187.657414 -1.57231129,185.187758 -5.4988254,182.322779 L-5.82642701,182.852858 C-1.89109059,185.724862 1.70194036,188.200904 5.15851966,190.423402 C25.7933041,203.692611 77.2720449,237.288101 97.032833,250.554755 C104.433571,255.524721 112.161322,260.181111 119.634403,264.684225 C123.909693,267.261173 128.331432,269.924978 132.639658,272.616883 L132.932559,272.063175 Z M150.100765,272.068284 C148.174562,270.769272 146.461858,269.643972 144.865021,268.627882 C140.607376,265.917456 136.212104,263.29197 131.962693,260.752063 C126.394642,257.424702 120.637205,253.983661 115.119736,250.314623 C112.462457,248.546843 108.178346,245.28207 104.035391,242.125866 C101.633371,240.29486 99.3648624,238.566037 97.3904304,237.10864 C85.3162231,228.192462 60.2379374,212.436993 38.1115952,198.536798 C25.1339838,190.383806 12.8756844,182.682977 5.46435959,177.741111 C2.02130782,175.445168 -1.45703316,172.786473 -5.48176894,169.373533 L-5.84348346,169.876788 C-1.80110308,173.304417 1.69429437,175.976524 5.1567552,178.28524 C12.5745497,183.231576 24.8357899,190.934321 37.8169302,199.08923 C59.9344501,212.984315 85.0033253,228.733398 97.059888,237.636803 C99.0302029,239.091645 101.297535,240.819191 103.697203,242.648281 C107.848391,245.810871 112.139561,249.081392 114.812719,250.859391 C120.341364,254.536093 126.10527,257.980327 131.679203,261.311519 C135.925673,263.848872 140.316828,266.47308 144.567415,269.178397 C146.160135,270.191933 147.868134,271.315317 149.790808,272.611135 L150.100765,272.068284 Z M158.257869,272.0702 C144.48625,262.571574 130.598177,253.076141 119.439136,245.445564 C107.814278,237.497578 99.4154436,231.755485 97.1145863,230.090527 C83.8852451,220.519095 50.4263574,199.045163 28.2853113,184.835224 C22.4725883,181.104875 17.47387,177.896303 13.8814272,175.570982 C12.7733456,174.85378 6.25366186,170.079879 -5.49706093,161.380841 L-5.82819147,161.909004 C6.09780112,170.737048 12.4463322,175.385774 13.5802925,176.119582 C17.1733235,178.445541 22.1726299,181.654114 27.9859411,185.385101 C50.1216938,199.591208 83.5729355,221.060031 96.7887492,230.621883 C99.095488,232.291311 107.497264,238.035959 119.125062,245.986499 C130.284102,253.6158 144.172176,263.111232 157.941442,272.609219 L158.257869,272.0702 Z M178.877361,272.0702 C159.6465,258.764587 137.631907,243.900033 121.557666,233.046833 C109.684019,225.029234 101.105209,219.23605 98.7620048,217.530857 C89.4809394,210.772674 70.8482302,198.656864 52.8289653,186.938934 C36.5659273,176.363546 21.2051171,166.375076 12.9327353,160.490565 C11.9640461,159.801462 5.9354707,155.33092 -5.49647278,146.822839 L-5.82877962,147.350363 C5.60669278,155.86036 11.638209,160.333457 12.6104271,161.025114 C20.8928075,166.916012 36.2583229,176.908313 52.5266543,187.486894 C70.5394495,199.200355 89.1656891,211.312971 98.4349914,218.061574 C100.785842,219.773153 109.368181,225.568254 121.247709,233.589046 C137.320185,244.441608 159.333014,259.304884 178.561523,272.609219 L178.877361,272.0702 Z M167.778313,272.0702 C150.637749,260.288404 131.972104,247.684667 118.342818,238.482374 C106.462113,230.459666 97.8780098,224.663288 95.5348055,222.956818 C86.2537401,216.199912 67.621619,204.084103 49.6041185,192.36745 C33.3399042,181.791423 17.9773296,171.801676 9.70494777,165.917165 C8.82271722,165.290012 3.85046583,161.604368 -5.49647278,154.650759 L-5.82877962,155.178283 C3.52168791,162.133808 8.49746822,165.821367 9.38263954,166.451714 C17.66502,172.342612 33.0322999,182.335552 49.3018075,192.91541 C67.3134265,204.628232 85.9384897,216.739571 95.2072039,223.487536 C97.5586424,225.199753 106.146863,230.998686 118.032861,239.024587 C131.66097,248.226241 150.324852,260.82934 167.46365,272.609858 L167.778313,272.0702 Z M141.336687,272.067645 C135.038149,267.869806 128.516701,263.737108 121.954082,259.785149 C109.187029,252.095815 87.1894926,237.296403 65.9159733,222.98428 C48.3231198,211.148199 31.7066014,199.969288 21.2686377,193.448682 C14.8701136,189.451379 5.8631278,183.289693 -5.50058986,175.134146 L-5.82466255,175.66678 C5.54905372,183.829352 14.5660381,189.998062 20.975149,194.002391 C31.4048786,200.517249 48.017868,211.694244 65.6060163,223.527132 C86.8854172,237.843087 108.889423,252.646969 121.669415,260.343328 C128.2238,264.290817 134.737602,268.419044 141.029082,272.611774 L141.336687,272.067645 Z M236.902253,87.8602131 C224.620427,77.6341661 214.137176,68.4305961 204.854934,59.7251723 C190.528686,46.2892757 153.198571,13.9021103 130.885196,-4.44946722 L130.530539,-3.94046401 C152.836268,14.4053657 190.151091,46.7791195 204.470281,60.2079909 C213.761934,68.9217172 224.253419,78.1329509 236.544067,88.3673003 L236.902253,87.8602131 Z M111.517294,272.062536 C97.5121782,263.406288 83.8728939,254.246785 82.3060525,253.106158 C77.987828,249.96145 73.4349302,246.994287 69.0325997,244.124199 L66.565295,242.513526 C60.6090624,238.617129 54.70694,234.432701 48.9989084,230.386221 C42.0833972,225.482675 34.9320363,220.412441 27.6330489,215.818639 C21.4244984,211.910746 8.40101102,205.156395 -5.54587769,198.610882 L-5.77937471,199.197161 C8.14810493,205.733733 21.147478,212.474673 27.3383839,216.37107 C34.6238438,220.95657 41.7681468,226.022333 48.6777765,230.920771 C54.3899252,234.970444 60.2961647,239.158703 66.2612195,243.060849 L68.7297006,244.671521 C73.1261495,247.537778 77.6719894,250.50047 81.9784508,253.636875 C83.5488212,254.780057 97.2092791,263.95361 111.226746,272.617522 L111.517294,272.062536 Z M236.931072,9.49160066 L234.112052,6.41778328 C230.838388,2.84581971 227.452975,-0.848125803 224.064622,-4.42392126 L223.654679,-3.96600997 C227.039503,-0.394046401 230.423152,3.29798317 233.695051,6.86803079 L236.515248,9.94248682 L236.931072,9.49160066 Z M236.924014,49.3062534 L233.473905,45.8128436 C227.007743,39.2494484 220.988578,33.5820776 214.615933,27.5826094 C210.063623,23.2966363 205.356041,18.8644126 200.504361,14.1039234 C196.270242,9.95015061 188.327815,3.1862196 178.711502,-4.45266047 L178.364491,-3.93790941 C187.964336,3.68947497 195.890295,10.4380784 200.110298,14.5784395 C204.966095,19.342122 209.675442,23.7762617 214.230692,28.0647894 C220.59922,34.0610643 226.61368,39.7239646 233.072196,46.2790574 L236.522894,49.7737444 L236.924014,49.3062534 Z M29.523963,272.058065 C24.4346691,269.1107 20.1764363,266.665314 16.1222928,264.362984 C11.1465125,261.537601 3.65813957,257.427895 -5.531762,252.477089 L-5.7934904,253.049318 C3.39288225,257.99757 10.8771381,262.105999 15.8493895,264.928827 C19.9023566,267.230518 24.1594131,269.674627 29.2469426,272.621354 L29.523963,272.058065 Z M83.2659193,272.058065 C79.1000266,269.640779 74.9388392,267.213913 70.7782399,264.786408 C61.6571523,259.465185 52.2249314,253.962586 42.8915203,248.662438 C33.2428589,243.184108 14.2343194,232.929322 -5.53470277,222.537226 L-5.79054963,223.11201 C13.9731792,233.501551 32.9752489,243.752505 42.618617,249.228281 C51.9496755,254.527152 61.3801319,260.028474 70.5000432,265.349058 C74.6612306,267.776563 78.8218299,270.204067 82.9883107,272.621354 L83.2659193,272.058065 Z M236.912251,31.924145 C234.043826,29.3095162 230.703701,26.2682699 227.368869,23.271729 C220.735084,17.3105797 209.067879,7.20779203 195.360957,-4.44627398 L194.997478,-3.94365725 C208.701459,7.7072155 220.363959,17.8061713 226.994804,23.7641274 C230.327871,26.7587523 233.666231,29.7987213 236.534069,32.4133501 L236.912251,31.924145 Z M236.913428,72.8890044 L236.3935,72.4119337 C228.401667,65.0655548 220.136931,57.4688256 211.931011,50.0949848 C199.339817,38.7819574 168.837578,12.783836 147.936359,-4.44946722 L147.579938,-3.94046401 C168.477039,13.2883687 198.969868,39.2781876 211.556945,50.5873832 C219.759925,57.9586693 228.022896,65.5541213 236.014141,72.8992228 L236.532892,73.3769322 L236.913428,72.8890044 Z M16.7422068,272.056788 L14.5930932,270.833137 C10.1366526,268.300255 3.02881511,264.269741 -5.52764493,259.454967 L-5.79819563,260.022087 C2.7570881,264.836862 9.86433742,268.866098 14.3201899,271.39898 L16.4687153,272.622631 L16.7422068,272.056788 Z M71.1123112,272.055511 C64.6067431,268.42543 58.0300084,264.660595 51.6697143,261.019657 C48.2343086,259.05198 44.8000791,257.086218 41.3629089,255.132591 C31.9865626,249.803704 13.4261962,239.29729 -5.52940939,228.799817 L-5.79643117,229.368215 C13.1562337,239.865049 31.7148356,250.370186 41.0900056,255.698434 C44.5265876,257.652061 47.9602289,259.617822 51.3956347,261.584223 C57.7571051,265.225799 64.3350161,268.991912 70.843525,272.623908 L71.1123112,272.055511 Z M236.911663,40.334513 L234.517878,38.169493 C231.445363,35.3900928 228.374024,32.6113312 225.29798,29.8440653 C217.6908,23.0047738 202.57525,9.45583632 186.808026,-4.44308073 L186.436901,-3.94748915 C202.202361,9.94951196 217.316734,23.4971721 224.92215,30.3364637 C227.998782,33.1024523 231.068944,35.8805752 234.141459,38.6599754 L236.534657,40.825634 L236.911663,40.334513 Z M236.908722,80.9813252 C230.778396,75.5700527 224.608076,69.9895382 218.641257,64.5935932 C215.714604,61.9476707 212.789127,59.3023867 209.860122,56.6673212 C199.231596,47.1112169 162.813707,14.4602895 140.442693,-4.44691262 L140.082155,-3.9430186 C162.446111,14.9584357 198.857531,47.6042539 209.484292,57.1597195 C212.414473,59.7935078 215.338185,62.4387917 218.26425,65.0847143 C224.232834,70.4819365 230.404919,76.0630897 236.537597,81.4769168 L236.908722,80.9813252 Z M236.901076,100.419245 C222.610118,88.6368102 208.677933,76.7311165 196.934268,66.6385472 C192.21904,62.5863196 185.695827,56.7241609 178.142757,49.9365999 C158.177292,31.993119 130.83285,7.41854618 116.741275,-1.52062315 L116.444846,-0.969469103 C130.494073,7.94351561 157.817342,32.498929 177.767515,50.4283596 C185.323526,57.2184752 191.849091,63.0831885 196.569025,67.139248 C208.315042,77.2337332 222.250168,89.1419815 236.545243,100.928248 L236.901076,100.419245 Z M236.900488,93.0141101 L233.493314,90.2174663 C221.793172,80.6160181 209.694263,70.6875815 198.205268,60.347855 C182.616254,46.3173763 141.146125,10.1538796 123.082749,-4.45138317 L122.731033,-3.93918671 C140.787351,10.6603282 182.245129,46.8129679 197.830026,60.8396147 C209.329019,71.1882823 221.433222,81.1211894 233.139245,90.7271082 L236.545832,93.5237519 L236.900488,93.0141101 Z M42.9962117,272.062536 C39.5949188,269.962019 36.2489124,267.88641 32.9711319,265.853591 C26.0844402,261.582307 19.5800484,257.547961 13.4397238,253.825277 C9.13267422,251.213841 2.57240784,247.53203 -5.53235016,243.17836 L-5.79290225,243.750589 C2.30303345,248.099789 8.85447752,251.776491 13.1532929,254.382817 C19.2906768,258.104224 25.7938923,262.137931 32.6794076,266.408577 C35.9577764,268.441396 39.3037828,270.517005 42.7056638,272.617522 L42.9962117,272.062536 Z M95.7006648,272.059343 C83.1924001,264.698275 71.2140618,257.268872 59.6297865,250.08471 C52.7842656,245.838971 46.3181038,241.828256 40.2095395,238.124731 C31.4154653,232.793289 13.4585447,223.147774 -5.53881985,213.551435 L-5.78702071,214.13069 C13.1985808,223.720642 31.1402094,233.357855 39.9225205,238.682271 C46.0287322,242.384519 52.4937177,246.394596 59.3380623,250.639696 C70.9252783,257.825774 82.9059692,265.256454 95.4207037,272.620715 L95.7006648,272.059343 Z M236.919309,22.7838012 C232.239958,18.2589734 228.759265,14.9169235 225.633816,11.9478445 C221.550853,8.07060676 215.152917,2.40132004 207.131677,-4.44627398 L206.768786,-3.9442959 C214.781792,2.89691163 221.170906,8.55853455 225.246811,12.4287472 C228.371083,15.3965488 231.850012,18.7366828 236.527599,23.260872 L236.919309,22.7838012 Z M236.918721,64.541224 C233.525074,61.2707028 230.196124,58.0468029 226.945987,54.8976249 C221.046805,49.1829941 215.475225,43.7857719 210.195958,38.7711003 C200.767266,29.8166034 178.837367,11.233835 159.184211,-4.45266047 L158.836024,-3.93790941 C178.476829,11.7390063 200.390847,30.3070858 209.808952,39.252003 C215.085867,44.2641199 220.656271,49.6607035 226.554277,55.374057 C229.805002,58.523235 233.133952,61.7484122 236.528187,65.0189334 L236.918721,64.541224 Z M53.0424651,272.071477 C39.0855777,262.319308 20.0917421,249.317692 8.86565244,242.761961 C4.45097076,240.183735 -0.392474965,237.454149 -5.5305857,234.647926 L-5.79466671,235.218878 C-0.661261206,238.021908 4.17747929,240.748939 8.58686759,243.324611 C19.7970771,249.870762 38.7762089,262.862159 52.7242739,272.608581 L53.0424651,272.071477 Z M102.213291,272.065729 C100.837599,271.169705 99.5260165,270.290924 98.3203014,269.458125 C97.8897729,269.149019 54.9845486,238.36167 35.63488,227.061415 C23.1383783,219.764212 8.12987216,211.763218 -5.54234877,205.110412 L-5.78290363,205.69286 C7.87696607,212.339918 22.8719447,220.333887 35.3566833,227.624065 C54.6822376,238.910269 97.5651121,269.681653 98.0003458,269.993952 C99.2148832,270.833137 100.529995,271.714472 101.911568,272.61369 L102.213291,272.065729 Z M236.925191,15.4521113 C230.838976,9.20740188 225.86202,4.30193931 222.133713,0.871755814 C220.31573,-0.800227132 218.342475,-2.58844419 216.268056,-4.44180343 L215.895167,-3.94876645 C217.966644,-2.0966845 219.937547,-0.311022038 221.753766,1.35904496 C225.473838,4.78220332 230.442561,9.67936346 236.521129,15.9157704 L236.925191,15.4521113 Z M236.92872,58.4497904 C223.438826,44.0872142 213.266708,33.7404626 206.695855,27.6950116 C195.279203,17.1924297 181.494057,5.47513743 168.874631,-4.45393776 L168.529973,-3.93663212 C181.137636,5.98286334 194.909843,17.6899372 206.31532,28.1823008 C212.875586,34.2175333 223.037117,44.5540666 236.5176,58.9051471 L236.92872,58.4497904 Z M44.4542447,61.7586306 C55.6791581,66.0292761 80.1687019,77.9177262 89.0098283,86.4060094 C108.723564,105.333648 117.607626,116.132563 124.094961,124.017962 C125.370666,125.567963 126.556972,127.01131 127.719164,128.385682 C136.13682,138.347967 145.151452,147.67288 152.395741,155.16551 C161.203343,164.276476 168.160613,171.472772 168.765235,174.380541 C168.915214,175.10413 168.765823,175.702544 168.308827,176.208993 C164.137053,180.834088 136.470303,176.181531 122.424016,173.075142 C113.070608,171.007197 103.477821,167.532947 93.940909,162.765432 C93.6821213,162.59619 68.0139175,145.808025 65.1413748,143.630871 C45.7811195,128.953441 31.5160396,107.343477 22.077349,93.0434879 C19.505941,89.1477293 17.2850727,85.7833267 15.4212136,83.2581087 C10.7595074,76.9399547 0.846764883,60.1747812 3.97868334,56.1787547 C5.02442062,54.8446171 7.47525709,54.3132611 10.6983394,54.3132611 C20.9775016,54.3132611 39.1008697,59.7226177 44.4542447,61.7586306 L44.4542447,61.7586306 Z M168.728769,176.656047 C169.328686,175.991852 169.533363,175.178852 169.338096,174.240677 C168.695832,171.143868 162.02911,164.247736 152.800979,154.703128 C145.564336,147.216885 136.556762,137.900274 128.152045,127.953955 C126.991618,126.581499 125.807076,125.140707 124.533136,123.591983 C118.03639,115.695089 109.139389,104.880208 89.3991861,85.9276614 C84.3251841,81.0560472 74.8488517,75.5917668 67.7927717,71.8646115 C59.9632697,67.7299982 50.8786476,63.5264109 44.6489236,61.1563846 C37.2528908,58.3424973 8.17280738,49.8427185 3.53109837,55.7642715 C-0.361890972,60.7316831 12.3063516,80.0578389 14.9618656,83.6572643 C16.8163142,86.1697093 19.0324773,89.5277255 21.5991801,93.4158203 C31.0613968,107.750935 45.3617659,129.413907 64.8043628,144.154563 C67.6933738,146.343852 93.378634,163.142874 93.6662412,163.328721 C103.272556,168.133277 112.908866,171.622854 122.306974,173.70038 C123.4774,173.959671 134.061226,176.272219 145.000884,177.707902 C150.640102,178.448096 155.316512,178.817235 159.013058,178.817235 C164.176459,178.817235 167.429538,178.0962 168.728769,176.656047 L168.728769,176.656047 Z M68.5697228,104.440178 C71.3463964,105.03029 76.755646,110.985053 77.578473,115.154792 C77.7343337,115.947355 77.6449344,116.478711 77.3108631,116.734809 C76.2227787,117.579742 73.5813805,116.397603 70.8888128,113.857696 C68.0062715,111.140245 65.6083689,107.306435 66.5864685,105.221246 C67.0411113,104.508514 67.6921974,104.253054 68.5697228,104.440178 L68.5697228,104.440178 Z M77.6514041,117.255308 C78.0248817,116.968555 78.4154157,116.348427 78.1530992,115.021314 C77.2755738,110.571847 71.6751743,104.449119 68.6832364,103.813025 C67.5710378,103.576725 66.6752797,103.945225 66.0906549,104.877653 L66.0730103,104.910224 C64.8808228,107.394568 67.5333959,111.540039 70.502984,114.339876 C72.2880305,116.023354 74.6682885,117.649355 76.4027538,117.649355 C76.8750412,117.649355 77.3002763,117.528011 77.6514041,117.255308 L77.6514041,117.255308 Z M71.0429091,101.59372 L71.750458,102.186386 C76.9714984,106.552829 87.8352854,115.636972 84.6227899,122.609102 C83.7505579,124.500142 81.8014166,124.885247 78.8288878,123.752923 C69.7401486,120.289529 56.3778847,105.044979 57.4894952,99.406986 C57.8053337,97.8039772 58.4946499,96.7815002 59.5380345,96.3670171 C59.9326857,96.2105481 60.3667431,96.139658 60.8284438,96.139658 C64.1632752,96.139658 68.9543753,99.8361581 71.0429091,101.59372 L71.0429091,101.59372 Z M85.1485993,122.894578 C88.5781235,115.452402 77.4549607,106.15048 72.1092317,101.680576 L71.4028591,101.088549 L71.4028591,101.089187 C68.3538704,98.5230959 62.7305328,94.4184991 59.3362978,95.7673257 C58.0900001,96.26164 57.2754073,97.4412246 56.9142809,99.2735084 C56.340831,102.181916 59.0010502,107.297494 64.0297644,112.959117 C68.7861633,118.314188 74.5188975,122.787285 78.6342089,124.355807 C79.8669791,124.825214 80.8833087,125.019363 81.7208395,125.019363 C83.6729217,125.019363 84.6551383,123.965593 85.1485993,122.894578 L85.1485993,122.894578 Z M83.7158569,105.610183 L83.7158569,105.610183 C84.31695,106.33505 84.94451,107.08674 85.5920672,107.862698 C94.2291043,118.211366 107.272589,133.840383 104.791168,142.730376 C104.364757,143.333899 103.644857,143.715173 102.650877,143.863339 C94.4249595,145.086991 70.4153491,130.369964 66.7835,127.263576 C58.1194078,119.850778 47.589104,108.639934 46.6268845,97.3300997 C46.1251894,91.4308993 48.4583951,87.8340285 49.4853115,86.5612011 C50.5016411,85.2998694 52.0131961,84.6529181 53.9776295,84.6375905 C54.0023319,84.6375905 54.0264462,84.6375905 54.0511487,84.6375905 C61.3930713,84.6375905 73.2996548,93.0517904 83.7158569,105.610183 L83.7158569,105.610183 Z M102.730278,144.495602 C103.911879,144.319973 104.7747,143.839071 105.294628,143.065667 L105.338151,142.972424 C107.984843,133.743308 95.2942506,118.536438 86.0278891,107.433526 C85.38092,106.658206 84.75336,105.907155 84.1528551,105.182927 C73.5954961,92.4546536 61.4965864,83.945295 53.9735124,83.9986893 C51.8332211,84.0155464 50.1740395,84.7359424 49.0424317,86.1403315 C47.9661105,87.4751078 45.5182148,91.2431365 46.0410834,97.3888554 C47.0227119,108.924771 57.664765,120.27484 66.4194328,127.764915 C70.0577516,130.877052 92.2582012,144.573517 101.602199,144.573517 C102.002144,144.573517 102.379738,144.547971 102.730278,144.495602 L102.730278,144.495602 Z M41.914597,69.8650017 C48.404285,71.077796 60.7725692,74.5654579 70.7000155,84.2863336 C72.8267793,86.3689678 75.0723501,88.3417544 77.6725776,90.6262017 C84.9092207,96.9833133 95.8453506,106.589871 117.170628,130.169429 L134.277666,150.55638 C136.314442,153.413696 141.435497,163.130739 140.024516,166.011046 C139.917472,166.228825 139.635746,166.405093 139.209923,166.520049 C135.894501,167.419267 124.748988,164.642421 111.489063,159.614977 C96.9016747,154.084277 83.2982677,147.193255 75.098817,141.180375 C62.1864907,131.711127 49.3729741,119.03203 39.0185282,105.477983 C29.5933652,93.1399239 23.6012553,81.8019891 22.9907517,75.1485444 C22.7984255,73.0505826 23.1513177,71.4897246 24.0400179,70.5100371 C24.8422596,69.626147 27.7989082,68.8993645 32.2194714,68.8993645 C34.9479165,68.8993645 38.2339312,69.1758994 41.914597,69.8650017 L41.914597,69.8650017 Z M139.352256,167.139539 C139.952761,166.977322 140.353882,166.698871 140.543267,166.311211 C142.174218,162.983212 136.69733,152.902138 134.73525,150.15467 L117.597627,129.730677 C96.2411781,106.116632 85.2897562,96.4960241 78.0425263,90.1293328 C75.4487685,87.851272 73.2090792,85.8835946 71.0940785,83.812456 C53.6112097,66.6928323 26.7043542,66.6647318 23.6212525,70.0617055 C22.6037466,71.1825344 22.1943916,72.9158277 22.4055388,75.2124093 C23.6841849,89.1438975 46.8368554,121.225789 74.7694509,141.709815 C92.3687741,154.614994 127.470375,167.318999 137.639553,167.318999 C138.329457,167.318999 138.904671,167.260244 139.352256,167.139539 L139.352256,167.139539 Z M190.003465,272.082334 C178.106292,262.618834 165.176909,252.563306 154.788938,244.48312 C147.867545,239.099948 141.890139,234.450583 137.671901,231.111088 C128.783134,224.074454 114.206333,217.069752 100.109465,210.295603 C89.2797909,205.091253 79.0500336,200.175572 71.9133766,195.518544 C71.9133766,195.518544 49.7940922,180.28038 44.6777431,176.76781 L41.895188,174.860805 C33.6192772,169.192157 25.0622291,163.331275 17.0098167,156.845156 C8.3745441,149.887715 1.22730033,144.022363 -5.48294525,138.386925 L-5.84289531,138.892096 C0.870291031,144.530089 8.02047557,150.397995 16.6598653,157.357992 C24.7299222,163.858161 33.2963809,169.726067 41.5811139,175.401102 L44.3636691,177.308107 C49.4800181,180.820038 71.5981262,196.057563 71.6040077,196.062034 C78.7783066,200.743331 89.0245322,205.667314 99.8718509,210.879967 C113.940487,217.640704 128.487293,224.631356 137.32489,231.627116 C141.545481,234.968528 147.524652,239.618531 154.446045,245.002341 C164.833427,253.08125 177.761045,263.13614 189.655278,272.597085 L190.003465,272.082334 Z M236.924014,247.183327 C214.300682,224.296065 182.528031,195.494914 167.440712,189.648082 C161.836784,187.476676 149.83492,186.261966 138.228883,185.088129 C129.073094,184.161449 120.42547,183.2865 115.954326,182.021975 C86.6883857,173.747001 46.8886129,140.198772 32.8305631,123.743343 C26.5937813,116.442947 20.5987306,108.781075 14.8012996,101.370832 C8.31984581,93.0869161 1.61724623,84.5207177 -5.44942048,76.4258423 L-5.87583192,76.8652328 C1.17965988,84.9473352 7.87637792,93.5071471 14.3531265,101.784676 C20.1546746,109.19939 26.1538423,116.86701 32.3994465,124.177624 C46.4992551,140.682229 86.4301862,174.333919 115.806111,182.640187 C120.323131,183.917485 128.994281,184.794989 138.174184,185.723585 C149.744344,186.894228 161.709155,188.105107 167.243093,190.249051 C182.246306,196.06395 213.940144,224.805068 236.522894,247.65018 L236.924014,247.183327 Z M236.89343,221.505169 C223.554104,211.249106 191.316812,183.391239 183.342036,176.101061 C161.732093,156.351481 151.639375,143.534435 144.960302,135.053177 C142.458296,131.875899 140.482099,129.366647 138.60236,127.400247 C138.281816,127.041965 106.360951,91.4685796 91.4824265,78.7064577 C76.8791583,66.1799972 58.0876475,56.4233573 34.0351019,48.8777199 C30.3291454,47.7147402 23.9112123,46.7784808 16.4798903,45.6946936 C9.23148404,44.6370909 1.015565,43.4389855 -5.59881152,41.8327834 L-5.72644088,42.4561048 C0.912049944,44.0680547 9.14090837,45.2680761 16.4016658,46.3275947 C23.8094617,47.4081887 30.2073976,48.3412548 33.8715952,49.4914616 C57.8500334,57.0134689 76.5756709,66.7337059 91.1177712,79.2077971 C105.9663,91.9437344 137.86011,127.48838 138.187712,127.85241 C140.053335,129.805399 142.021886,132.304432 144.513305,135.468299 C151.204141,143.965523 161.316268,156.806199 182.962677,176.589627 C190.942746,183.884276 223.203565,211.761941 236.553478,222.026307 L236.89343,221.505169 Z M236.92225,258.270912 C213.658418,235.077098 180.883553,205.080396 165.078687,196.871202 C159.144805,193.789721 145.541398,191.317511 133.539533,189.135886 C125.128347,187.60696 117.183567,186.163614 112.968269,184.717713 C85.9414305,175.447723 47.1538702,147.533655 31.8189388,129.706408 C29.3157566,126.794808 26.8284546,123.888316 24.3470342,120.989489 C14.7489539,109.773536 4.82327205,98.1756709 -5.45530202,87.068927 L-5.86995038,87.5217291 C4.40038954,98.6195319 14.3213662,110.212288 23.9159175,121.42377 C26.3979261,124.323875 28.8852281,127.230366 31.3895866,130.141967 C46.7727466,148.026692 85.6814665,176.028255 112.791235,185.326984 C117.045351,186.785658 125.010128,188.233475 133.442488,189.766232 C145.406122,191.940193 158.966594,194.40474 164.825193,197.447902 C180.571832,205.62644 213.290822,235.577799 236.524658,258.740957 L236.92225,258.270912 Z M236.924014,239.025226 C217.263212,219.057866 190.498102,194.443697 178.195103,187.583969 C170.465587,183.274366 152.448675,181.679659 137.971271,180.397891 C131.419239,179.817998 125.760612,179.316658 122.170522,178.662682 C99.3325139,174.5038 64.5326358,149.16221 60.3837996,145.700732 C52.1502359,138.835256 44.3583757,130.997118 36.5635747,121.739262 C29.2639991,113.071519 22.3055527,103.901797 15.575898,95.0347953 C9.16502267,86.5867471 2.53535416,77.8513068 -4.38545044,69.551425 C-4.7365782,69.131194 -5.08947042,68.7052152 -5.4441271,68.2773204 L-5.88171345,68.7039379 C-5.52705677,69.1324713 -5.1735764,69.5590888 -4.82127233,69.9805971 C2.09070996,78.2689832 8.71567325,86.9986756 15.1224315,95.4409761 C21.8562032,104.314365 28.819943,113.490473 36.1295172,122.17035 C43.9478444,131.455668 51.7644071,139.318713 60.0250258,146.207181 C64.1885659,149.680793 99.1190141,175.112432 122.072889,179.293028 C125.688269,179.951475 131.358071,180.453453 137.923631,181.034624 C152.349277,182.311283 170.301492,183.900242 177.926317,188.151728 C190.179323,194.983994 216.889735,219.554097 236.522305,239.49144 L236.924014,239.025226 Z M234.742552,265.004188 L221.825521,251.712626 C209.285496,239.411608 165.068689,205.032497 150.043126,198.85293 C143.746353,196.263847 134.558804,194.008777 124.831329,191.620869 C109.967509,187.972268 93.1198464,183.837016 83.9234751,177.649785 L79.1717814,174.615563 C79.0306245,174.522321 64.8761175,165.139929 50.4316508,152.566847 C35.8172076,139.847515 12.7851087,116.009943 10.957127,113.964989 C7.34292251,109.922341 3.46581331,105.999759 -0.28366653,102.206823 L-2.41219477,100.051383 C-3.369709,99.0793591 -4.31428384,98.0952011 -5.25885869,97.1104044 L-5.45883094,96.9015662 L-5.86642146,97.3626708 L-5.66586105,97.5708703 C-4.71952174,98.5575829 -3.77318244,99.5436569 -2.8133156,100.517597 L-0.684787354,102.673675 C3.05939911,106.461502 6.93121492,110.378336 10.5348326,114.409488 C12.3657551,116.458274 35.4307906,140.329695 50.0634666,153.064993 C64.5391055,165.664898 78.7247846,175.067727 78.8700585,175.163524 L83.6199878,178.196468 C92.8939954,184.436068 109.792239,188.584093 124.701936,192.24419 C134.408236,194.626351 143.576376,196.87695 149.83492,199.450705 C164.809313,205.608558 208.916135,239.909755 221.426164,252.181394 L234.338491,265.467208 L234.742552,265.004188 Z M236.885196,152.253271 C227.200069,145.326484 218.122505,138.867827 211.97924,134.534594 C201.177209,126.914235 190.937453,117.67043 181.035297,108.729983 C174.913793,103.203115 168.584083,97.4884846 162.222025,92.2509246 C161.930889,91.9750282 132.947851,64.5354762 119.943184,53.2326671 C108.452425,43.2448362 95.8400573,34.3075828 83.6429258,25.6653853 C76.8021101,20.8180398 69.7283856,15.8052842 62.9522668,10.6769331 C56.8154711,6.03267796 50.2052116,1.36223821 41.5175933,-4.46671074 L41.2082245,-3.92385914 C49.8864323,1.89934197 56.4884576,6.56339524 62.6158429,11.2006252 C69.3996076,16.3353628 76.4768611,21.3500343 83.3217939,26.1999344 C95.5065741,34.8344682 108.107179,43.7627805 119.575588,53.7308133 C132.571432,65.0253199 161.543883,92.4565695 161.8509,92.7458775 C168.218252,97.9891854 174.542668,103.699346 180.658879,109.221104 C190.574562,118.173047 200.827257,127.429625 211.658696,135.070421 C217.800785,139.403015 226.877173,145.860395 236.561124,152.786542 L236.885196,152.253271 Z M236.888725,145.599826 C229.243315,139.960556 222.728337,135.173243 218.048398,131.755833 C208.243287,124.595939 198.935755,116.299889 189.934651,108.276543 C182.049274,101.247572 173.894523,93.9791086 165.423345,87.4834102 C165.036928,87.1295987 126.726949,52.0664941 123.63326,49.4314286 C113.604652,40.8907762 102.687931,33.3949535 92.13116,26.1450106 C84.9221601,21.194204 77.4679001,16.074794 70.3612389,10.6686307 C64.8255363,6.45674086 58.2105716,1.64835293 49.5423624,-4.46287885 L49.2218186,-3.92705238 C57.8841463,2.18034751 64.4938176,6.98426489 70.0236387,11.1916842 C77.1414748,16.6067886 84.6022045,21.7300305 91.8170859,26.684669 C102.360917,33.9256708 113.264699,41.4138297 123.27037,49.9340453 C126.355824,52.5620857 164.657569,87.6175265 165.064572,87.9879429 C173.538102,94.4874732 181.684031,101.748273 189.561173,108.770218 C198.572864,116.802506 207.891571,125.108774 217.71962,132.285911 C222.398971,135.702683 228.912773,140.489357 236.557595,146.127988 L236.888725,145.599826 Z M209.579573,272.089359 C189.238865,254.621672 162.052636,231.803383 149.446738,221.988626 C140.586791,215.088663 125.044241,209.040019 110.012797,203.189995 C96.9963674,198.124231 84.7021906,193.339473 76.8444572,188.168971 C76.4980347,187.948638 41.8922472,165.882039 19.0712955,145.921066 C12.013451,139.747885 3.75577309,132.352331 -5.47353479,123.940047 L-5.85171762,124.429252 C3.38053103,132.844729 11.6417379,140.242838 18.7025231,146.418574 C41.5581759,166.409563 76.1998407,188.499153 76.5433225,188.717571 C84.4481082,193.919367 96.7699283,198.714343 109.814589,203.791602 C124.807215,209.626299 140.310947,215.659615 149.104433,222.507848 C161.702097,232.316857 188.879503,255.126843 209.214329,272.59006 L209.579573,272.089359 Z M236.896371,209.434704 C221.339118,197.157317 197.362444,176.846364 190.189909,170.699368 C172.977003,155.947216 138.171832,119.746678 137.829526,119.390312 C112.070159,90.6894279 81.14092,58.7608124 39.9778069,43.1369045 C37.6557761,42.2562076 32.9276085,40.7553826 26.9413801,38.855402 C17.6809001,35.9163395 4.9979537,31.8909352 -5.56705122,27.9613282 L-5.75820118,28.5661288 C4.82033129,32.4995677 17.5103355,36.5275266 26.7766971,39.468505 C32.7546913,41.365931 37.4763892,42.8642014 39.783128,43.7397891 C80.8262577,59.3177143 111.696093,91.1875741 137.415466,119.843752 C137.765418,120.208421 172.590586,156.429396 189.825254,171.200708 C197.000729,177.350258 220.985637,197.667597 236.550537,209.951371 L236.896371,209.434704 Z M236.889313,159.224762 C204.526156,135.15089 179.183789,114.605554 159.418296,96.4193863 C159.008941,96.0266172 118.392811,57.1852654 115.026219,54.3311433 C114.550403,53.9862729 67.0499336,19.6071614 32.5494257,-4.4635175 L32.2312345,-3.92641373 C66.7276254,20.1417105 114.223977,54.5176288 114.682149,54.8484489 C118.017569,57.6770251 158.620171,96.5062425 159.034232,96.9022049 C178.819134,115.106893 204.176793,135.665641 236.557007,159.752286 L236.889313,159.224762 Z M236.885196,132.918812 C228.285801,126.744993 222.675991,122.650615 218.696543,119.643217 C211.745743,114.390329 205.543662,108.088141 199.546259,101.992876 C197.899428,100.319615 196.250245,98.6438006 194.581065,96.9826746 C190.272839,92.6960629 170.99669,76.9022744 156.920995,65.3701904 C149.060909,58.9294157 142.851771,53.8425769 141.698401,52.7683693 C133.415433,45.0515741 125.278914,38.327878 116.823617,32.2134529 C112.720657,29.2462899 108.47654,26.3544875 104.372403,23.5578437 C98.9849151,19.8856123 93.4139232,16.0888443 88.0952493,12.0781289 C85.5314873,10.1449385 81.4191167,6.61257121 77.4420213,3.19579934 C75.1476338,1.22492868 72.9808755,-0.636733001 71.092314,-2.21036401 C70.1800876,-2.97099491 69.2590389,-3.71246633 68.3368139,-4.45202182 L67.9880388,-3.93854806 C68.9067348,-3.20090853 69.8248428,-2.46199169 70.7341284,-1.70391539 C72.619161,-0.132838981 74.7847429,1.7275454 77.0773661,3.69713876 C81.0615192,7.11901982 85.1809477,10.6584123 87.7594136,12.6024597 C93.0892624,16.6214775 98.6667239,20.4227161 104.060093,24.0981408 C108.160701,26.8928685 112.401289,29.782755 116.49778,32.7448089 C124.932492,38.844545 133.050777,45.5529135 141.316101,53.2531039 C142.482998,54.3400844 148.698607,59.4326711 156.567515,65.8798322 C170.633211,77.4042525 189.896421,93.1878226 194.184061,97.4539976 C195.851477,99.1132075 197.498896,100.787106 199.14455,102.459728 C205.157245,108.569683 211.375206,114.887837 218.360707,120.167547 C222.343684,123.178139 227.957023,127.275072 236.561124,133.450807 L236.885196,132.918812 Z M200.63199,272.092552 C182.709183,256.185723 158.895427,235.289129 147.230575,226.069593 C138.49414,219.165798 123.024521,213.228917 108.064832,207.488102 C94.7237415,202.368053 82.1219603,197.532204 74.1930603,192.152225 L51.2003677,174.792469 C50.8010113,174.501245 11.0971076,145.484869 -5.48118078,131.414155 L-5.84407162,131.917411 C10.7512732,146.002175 50.4728215,175.030685 50.8680608,175.319993 L73.8695758,192.685497 C81.8649372,198.11082 94.4961261,202.958165 107.868977,208.090348 C122.78926,213.815836 138.21712,219.73675 146.884741,226.58626 C158.538418,235.796855 182.342763,256.685147 200.260277,272.586867 L200.63199,272.092552 Z M236.886961,125.07301 C233.075725,122.29361 229.772654,119.882071 227.213009,118.000612 C223.745254,115.453041 169.156945,69.5648367 125.294206,32.6937169 C106.292137,16.7204681 89.880884,2.92501218 81.0732823,-4.44818992 L80.7145085,-3.94237996 C89.5215221,3.4301835 105.932187,17.2256394 124.934256,33.1982496 C168.803465,70.0757558 223.400008,115.970347 226.883054,118.529413 C229.443287,120.411511 232.746947,122.82305 236.559359,125.603089 L236.886961,125.07301 Z M236.89343,172.105673 C192.436657,137.815972 150.498357,101.493452 150.087238,101.137086 C145.408475,96.8121554 140.72089,92.3358649 135.759225,87.5958124 C123.86911,76.2399955 111.573757,64.4977959 99.3348666,54.9001795 C87.4706301,45.5969803 50.2775545,20.7509816 23.1195574,2.60888095 C19.35655,0.0945200443 15.7952793,-2.28444729 12.5333789,-4.46734939 L12.2245982,-3.92322049 C15.4870868,-1.74031838 19.0483575,0.638648948 22.8113648,3.15300986 C49.9611278,21.2893627 87.1436166,46.1283362 98.9902085,55.4181238 C111.206749,64.9972194 123.490339,76.7298392 135.369867,88.0754378 C140.334473,92.8167676 145.023822,97.294974 149.712584,101.629484 C150.131349,101.992876 192.081412,138.326253 236.553478,172.626811 L236.89343,172.105673 Z M236.903429,109.045476 C230.6243,103.765126 223.261792,97.5414925 215.639908,91.0994405 C197.423612,75.7016144 176.777064,58.2492546 167.086056,50.4583761 C164.877539,48.6835707 136.269155,24.6320513 101.923919,-4.2495701 L101.563969,-3.74439878 C135.910969,25.1391385 164.522882,49.1925739 166.736104,50.9718498 C176.421231,58.7576192 197.065426,76.2074244 215.278782,91.6033346 C222.900666,98.0460251 230.263174,104.269659 236.543479,109.550647 L236.903429,109.045476 Z M236.89049,118.368473 C231.00013,113.940082 226.637794,110.582704 223.554693,108.104107 C221.056216,106.094918 183.707279,74.6848853 147.588172,44.3088254 C126.041162,26.1890774 104.438276,8.02079214 89.5897479,-4.44755127 L89.230386,-3.94237996 C104.078326,8.52596346 125.6818,26.6936101 147.228222,44.8139967 C183.349682,75.1919725 220.700971,106.603921 223.204153,108.616943 C226.292548,111.10001 230.660177,114.461219 236.556418,118.893443 L236.89049,118.368473 Z M236.889901,164.415701 C222.295456,153.501829 212.736782,146.619748 206.807604,142.759115 C200.645518,138.744568 152.915081,97.9566143 152.450439,97.5606519 C147.629343,92.7701462 144.008081,89.1790231 141.388444,86.5809992 C137.999503,83.2210671 136.29915,81.5343952 135.83098,81.0477447 C126.185847,71.0228722 118.384577,63.8195507 110.533901,57.6910754 C98.8578739,48.5762776 86.4354796,40.0483982 74.4218521,31.802163 C67.6057389,27.1234208 60.5573049,22.285655 53.742368,17.4050998 C48.8401069,13.8944465 43.8784423,10.284164 39.0796962,6.79203156 C33.9892259,3.08786766 28.7246622,-0.742748726 23.5218545,-4.46160155 L23.19837,-3.92832968 C28.3994132,-0.210754153 33.6628006,3.61922359 38.7526827,7.32274884 C43.5520169,10.8155199 48.5142697,14.4264411 53.4182953,17.9383717 C60.2379374,22.8221202 67.2893122,27.6618019 74.107778,32.34246 C86.1137595,40.583586 98.529096,49.1057176 110.190419,58.2096584 C118.017569,64.3196128 125.800019,71.5056908 135.423978,81.5088493 C135.896853,82.000609 137.599558,83.6891968 140.992029,87.0529608 C143.611665,89.6503461 147.232339,93.2414691 152.069316,98.0466638 C152.551013,98.4585924 200.311447,139.271453 206.505881,143.306437 C212.423296,147.160684 221.972559,154.035101 236.556418,164.941309 L236.889901,164.415701 Z M236.892254,177.451803 C222.385443,166.421697 208.683814,156.003417 200.789615,150.671976 C182.59861,138.385647 147.261159,105.265313 146.924735,104.950459 L146.753582,104.760142 C142.315375,99.8131668 134.054168,90.6057649 127.095133,84.5750029 C121.14537,79.4211059 114.931526,74.3623676 108.923536,69.469678 C106.185093,67.2407931 103.44959,65.012547 100.731143,62.7715278 C85.3591583,50.0981781 69.4790084,38.8113352 47.6308629,25.0312069 C40.3154071,20.4176069 32.3024011,15.6692519 24.552888,11.0767274 C16.0093673,6.01351849 7.17471055,0.777874419 -1.07179249,-4.47054264 L-1.36939826,-3.92002724 C6.88533893,1.333499 15.7235246,6.57169767 24.2711623,11.6374611 C32.0171466,16.2274311 40.0266237,20.9745087 47.3356097,25.5836382 C69.1614054,39.3497163 85.0239107,50.6231475 100.374722,63.2798924 C103.094345,65.5221888 105.831612,67.750435 108.570644,69.9805971 C114.575693,74.8700935 120.78542,79.9262772 126.728713,85.0737877 C133.658928,91.0796424 141.903079,100.268523 146.332464,105.205918 L146.521262,105.415395 C146.876507,105.74877 182.249835,138.901676 200.479658,151.214189 C208.359154,156.536689 222.054901,166.950499 236.554654,177.975496 L236.892254,177.451803 Z M236.886373,138.639191 C235.747707,137.813418 234.66374,137.034266 233.642705,136.3094 C210.881157,120.135615 160.902208,76.9948785 159.636501,75.7373787 C139.878654,56.1148898 118.545731,38.5233045 94.4179016,21.9580281 C84.1340342,14.89968 70.1736179,4.64297785 57.8735596,-4.45904695 L57.5418409,-3.93152292 C69.8466045,5.17369513 83.8123141,15.4342291 94.1032394,22.4983251 C118.201661,39.0425261 139.508117,56.6117587 159.238909,76.2093403 C160.50638,77.4674787 210.539439,120.656114 233.321573,136.843949 C234.339667,137.567538 235.422458,138.345412 236.559947,139.170547 L236.886373,138.639191 Z M236.889313,188.091695 C207.828051,166.561562 175.286095,138.829508 167.821836,131.92252 C167.088997,131.243636 162.130273,126.51955 155.268284,119.981062 C136.575583,102.17042 105.290511,72.362119 102.457963,70.0348823 C87.4300475,57.682773 69.4248982,43.5513877 49.8305577,32.3909973 C49.6382314,32.2773178 30.5173546,20.9687609 25.4457053,18.4211903 C16.4645983,13.9104127 6.04898437,7.83558394 -5.51235293,0.3640299 L-5.81289947,0.913267996 C5.76608244,8.39567907 16.1999291,14.4807262 25.1986807,19.0004449 C30.2526855,21.5397131 49.357094,32.8380516 49.5535373,32.9542857 C69.1137649,44.0955166 87.0942117,58.2083811 102.103306,70.5438855 C104.918798,72.857072 136.193871,102.656432 154.880102,120.461326 C161.744444,127.001091 166.704344,131.727093 167.440712,132.408532 C174.911441,139.321268 207.478099,167.075035 236.557007,188.619219 L236.889313,188.091695 Z M236.894607,198.916795 C230.501964,193.958963 223.037117,188.112132 215.818707,182.457534 C205.830681,174.634084 196.396107,167.244277 192.430775,164.280308 C188.362516,161.237784 132.232656,105.548234 129.063684,102.183832 C125.354198,98.244645 121.847626,94.6528833 118.342818,91.2054563 C109.309365,82.3154629 100.33708,74.3438467 91.6765172,67.5122189 C79.3488156,57.7862341 64.1179874,48.4127835 45.1147413,38.8566793 C42.6045013,37.5940703 40.0278,36.3659484 37.2999431,35.0656591 C29.4028034,31.3014622 21.2357011,27.4088969 14.3578317,22.4861908 C9.9713814,19.3465926 3.75106786,16.7753919 -2.83507728,14.0528315 C-3.74259844,13.6779445 -4.65129591,13.3024189 -5.55705261,12.9243388 L-5.76819979,13.5201982 C-4.86185494,13.8989171 -3.95198116,14.2750813 -3.04446,14.6499682 C3.51051299,17.3597557 9.702007,19.918822 14.0343472,23.0194627 C20.9539755,27.9721853 29.1434276,31.8756076 37.0635053,35.6506616 C39.7890096,36.9496735 42.3627702,38.1765182 44.8677168,39.4359339 C63.8362618,48.9747946 79.0341534,58.3278084 91.3306828,68.0288859 C99.9747778,74.8471021 108.929418,82.8040293 117.947579,91.6786951 C121.447681,95.121013 124.94896,98.7070268 128.652564,102.640466 C131.823301,106.007423 188.018446,161.756367 192.09788,164.806554 C196.057331,167.766053 205.488964,175.153945 215.474637,182.975478 C222.693636,188.630715 230.159071,194.478184 236.552301,199.436016 L236.894607,198.916795 Z M221.160319,272.092552 C200.892542,254.080736 163.608303,223.748104 148.987978,214.02659 C144.492131,211.038352 115.786114,199.830701 113.424677,198.983853 C113.137658,198.870173 84.6704303,187.60696 79.5282025,184.206793 C78.9935708,183.828713 25.8756456,146.165669 7.07648888,127.761083 C2.95706036,123.728654 -1.26235429,119.577436 -5.46471248,115.423024 L-5.86053992,115.895625 C-1.65759358,120.050675 2.56240923,124.202531 6.6824259,128.2356 C25.5162837,146.673395 78.6724389,184.363262 79.2141284,184.74709 C84.4145835,188.185576 112.049573,199.119885 113.231762,199.586737 C115.510858,200.404847 144.324508,211.676362 148.680962,214.571358 C163.282466,224.280738 200.533769,254.587185 220.788018,272.586867 L221.160319,272.092552 Z M231.517706,271.605263 L225.900838,265.460822 C206.158871,247.300839 166.054434,213.503537 141.084369,202.143249 C139.017597,201.605507 89.3203735,188.526615 81.3379515,181.446553 C80.965062,181.184707 41.2970357,153.033061 24.9569495,137.09366 C8.62450942,121.161924 -4.36251245,106.356764 -4.49131811,106.209236 L-5.86406884,104.811872 L-5.46118356,104.346297 L-4.0772579,105.756434 C-3.93610101,105.916735 9.03562886,120.704651 25.3498362,136.617867 C41.6569857,152.525335 81.2861939,180.649519 81.6849621,180.931802 C89.5891597,187.940335 140.751474,201.403055 141.267285,201.538449 C166.347923,212.944719 206.513527,246.789281 226.299606,264.992053 L231.934707,271.155654 L231.517706,271.605263 Z" id="Fill-1" stroke="none" fill="#E3DBEB" fill-rule="evenodd" mask="url(#mask-6)"></path>
                            </g>
                        </g>
                    </g>
                    <g id="Group-6" transform="translate(6.790698, 4.244186)" stroke-linecap="round" stroke-width="1.00352211">
                        <line x1="56.2205761" y1="32.5813375" x2="59.2439976" y2="32.5813375" id="Stroke-21" stroke="#79589F"></line>
                        <line x1="0" y1="32.5813375" x2="3.0234215" y2="32.5813375" id="Stroke-21" stroke="#79589F"></line>
                        <line x1="27.2296753" y1="62.0320009" x2="33.0377665" y2="62.0320009" id="Stroke-21" stroke="#C5B4D8" transform="translate(30.133721, 62.032001) rotate(90.000000) translate(-30.133721, -62.032001) "></line>
                        <line x1="27.3930128" y1="3.16512677" x2="32.8744291" y2="3.16512677" id="Stroke-21" stroke="#79589F" transform="translate(30.133721, 3.165127) rotate(90.000000) translate(-30.133721, -3.165127) "></line>
                        <line x1="47.904947" y1="52.2652055" x2="50.9283685" y2="52.2652055" id="Stroke-21" stroke="#79589F" transform="translate(49.416658, 52.265205) rotate(45.000000) translate(-49.416658, -52.265205) "></line>
                        <line x1="8.15099644" y1="12.5112549" x2="11.1744179" y2="12.5112549" id="Stroke-21" stroke="#79589F" transform="translate(9.662707, 12.511255) rotate(45.000000) translate(-9.662707, -12.511255) "></line>
                        <line x1="8.42244494" y1="52.4631721" x2="11.4458664" y2="52.4631721" id="Stroke-21" stroke="#79589F" transform="translate(9.934156, 52.463172) rotate(135.000000) translate(-9.934156, -52.463172) "></line>
                        <line x1="48.1763955" y1="12.7092215" x2="51.199817" y2="12.7092215" id="Stroke-21" stroke="#79589F" transform="translate(49.688106, 12.709222) rotate(135.000000) translate(-49.688106, -12.709222) "></line>
                        <line x1="53.9246518" y1="43.4743294" x2="56.9480733" y2="43.4743294" id="Stroke-21" stroke="#79589F" transform="translate(55.436363, 43.474329) rotate(23.000000) translate(-55.436363, -43.474329) "></line>
                        <line x1="2.17333865" y1="21.5072003" x2="5.19676015" y2="21.5072003" id="Stroke-21" stroke="#79589F" transform="translate(3.685049, 21.507200) rotate(23.000000) translate(-3.685049, -21.507200) "></line>
                        <line x1="17.3912729" y1="58.4482865" x2="20.4146944" y2="58.4482865" id="Stroke-21" stroke="#79589F" transform="translate(18.902984, 58.448287) rotate(113.000000) translate(-18.902984, -58.448287) "></line>
                        <line x1="39.3584021" y1="6.69697337" x2="42.3818236" y2="6.69697337" id="Stroke-21" stroke="#79589F" transform="translate(40.870113, 6.696973) rotate(113.000000) translate(-40.870113, -6.696973) "></line>
                        <line x1="38.578975" y1="58.3442503" x2="41.6023965" y2="58.3442503" id="Stroke-21" stroke="#79589F" transform="translate(40.090686, 58.344250) rotate(68.000000) translate(-40.090686, -58.344250) "></line>
                        <line x1="17.5183765" y1="6.21743982" x2="20.541798" y2="6.21743982" id="Stroke-21" stroke="#79589F" transform="translate(19.030087, 6.217440) rotate(68.000000) translate(-19.030087, -6.217440) "></line>
                        <line x1="2.15778844" y1="43.0994369" x2="5.18120993" y2="43.0994369" id="Stroke-21" stroke="#79589F" transform="translate(3.669499, 43.099437) rotate(158.000000) translate(-3.669499, -43.099437) "></line>
                        <line x1="54.2845989" y1="22.0388384" x2="57.3080204" y2="22.0388384" id="Stroke-21" stroke="#79589F" transform="translate(55.796310, 22.038838) rotate(158.000000) translate(-55.796310, -22.038838) "></line>
                        <line x1="57.3840066" y1="38.5866729" x2="58.6572624" y2="38.5866729" id="Stroke-21" stroke="#79589F" transform="translate(58.020635, 38.586673) rotate(11.000000) translate(-58.020635, -38.586673) "></line>
                        <line x1="0.498686472" y1="27.010444" x2="1.77194229" y2="27.010444" id="Stroke-21" stroke="#79589F" transform="translate(1.135314, 27.010444) rotate(11.000000) translate(-1.135314, -27.010444) "></line>
                        <line x1="23.2416976" y1="60.1370982" x2="24.5149535" y2="60.1370982" id="Stroke-21" stroke="#79589F" transform="translate(23.878326, 60.137098) rotate(101.000000) translate(-23.878326, -60.137098) "></line>
                        <line x1="34.8179265" y1="4.10061525" x2="36.0911823" y2="4.10061525" id="Stroke-21" stroke="#79589F" transform="translate(35.454554, 4.100615) rotate(101.000000) translate(-35.454554, -4.100615) "></line>
                        <line x1="44.9861278" y1="56.6125302" x2="46.2593836" y2="56.6125302" id="Stroke-21" stroke="#79589F" transform="translate(45.622756, 56.612530) rotate(56.000000) translate(-45.622756, -56.612530) "></line>
                        <line x1="12.6991435" y1="8.30588585" x2="13.9723993" y2="8.30588585" id="Stroke-21" stroke="#79589F" transform="translate(13.335771, 8.305886) rotate(56.000000) translate(-13.335771, -8.305886) "></line>
                        <line x1="4.85956174" y1="48.6605423" x2="6.13281755" y2="48.6605423" id="Stroke-21" stroke="#79589F" transform="translate(5.496190, 48.660542) rotate(146.000000) translate(-5.496190, -48.660542) "></line>
                        <line x1="53.1662061" y1="16.3735579" x2="54.4394619" y2="16.3735579" id="Stroke-21" stroke="#79589F" transform="translate(53.802834, 16.373558) rotate(146.000000) translate(-53.802834, -16.373558) "></line>
                        <line x1="53.1853127" y1="49.3679176" x2="54.4585685" y2="49.3679176" id="Stroke-21" stroke="#79589F" transform="translate(53.821941, 49.367918) rotate(34.000000) translate(-53.821941, -49.367918) "></line>
                        <line x1="4.87866832" y1="16.232096" x2="6.15192414" y2="16.232096" id="Stroke-21" stroke="#79589F" transform="translate(5.515296, 16.232096) rotate(34.000000) translate(-5.515296, -16.232096) "></line>
                        <line x1="13.1342942" y1="56.8597271" x2="14.40755" y2="56.8597271" id="Stroke-21" stroke="#79589F" transform="translate(13.770922, 56.859727) rotate(124.000000) translate(-13.770922, -56.859727) "></line>
                        <line x1="45.4212786" y1="8.55308279" x2="46.6945344" y2="8.55308279" id="Stroke-21" stroke="#79589F" transform="translate(46.057906, 8.553083) rotate(124.000000) translate(-46.057906, -8.553083) "></line>
                        <line x1="34.9939302" y1="60.6668779" x2="36.267186" y2="60.6668779" id="Stroke-21" stroke="#79589F" transform="translate(35.630558, 60.666878) rotate(79.000000) translate(-35.630558, -60.666878) "></line>
                        <line x1="23.4177013" y1="3.78155774" x2="24.6909571" y2="3.78155774" id="Stroke-21" stroke="#79589F" transform="translate(24.054329, 3.781558) rotate(79.000000) translate(-24.054329, -3.781558) "></line>
                        <line x1="0.630218073" y1="38.5958589" x2="1.90347389" y2="38.5958589" id="Stroke-21" stroke="#79589F" transform="translate(1.266846, 38.595859) rotate(169.000000) translate(-1.266846, -38.595859) "></line>
                        <line x1="57.5155382" y1="27.0196301" x2="58.788794" y2="27.0196301" id="Stroke-21" stroke="#79589F" transform="translate(58.152166, 27.019630) rotate(169.000000) translate(-58.152166, -27.019630) "></line>
                    </g>
                    <circle id="Oval" stroke="#79589F" cx="36.5" cy="36.5" r="26.3139535"></circle>
                    <circle id="Oval" fill="#79589F" cx="36.9244186" cy="3.81976744" r="1.27325581"></circle>
                    <circle id="Oval" fill="#C5B4D8" cx="36.9244186" cy="69.1802326" r="1.27325581"></circle>
                    <circle id="Oval" fill="#C5B4D8" cx="69.1802326" cy="36.9244186" r="1.27325581"></circle>
                    <circle id="Oval" fill="#C5B4D8" cx="3.81976744" cy="36.9244186" r="1.27325581"></circle>
                    <path d="M40.6013111,37.5264375 C40.6508404,37.5264375 40.7002965,37.5302413 40.7492432,37.5378153 C41.277232,37.6195159 41.6390199,38.1137668 41.5573193,38.6417556 L41.5573193,38.6417556 L37.0315302,67.889571 C36.967054,68.3062473 36.6401304,68.6331709 36.2234542,68.6976471 C35.6954654,68.7793477 35.2012145,68.4175598 35.1195139,67.889571 L35.1195139,67.889571 L30.5937248,38.6417556 C30.5861509,38.5928088 30.5823471,38.5433527 30.5823471,38.4938234 C30.5823471,37.959551 31.0154605,37.5264375 31.549733,37.5264375 L31.549733,37.5264375 L34.1915848,37.5268464 C34.6063134,38.2793637 35.3983104,38.7879847 36.3071658,38.7879847 C37.2160212,38.7879847 38.0080181,38.2793637 38.4227468,37.5268464 Z M36.2234542,4.30234505 C36.6401304,4.36682128 36.967054,4.69374486 37.0315302,5.1104211 L41.5573193,34.3582366 C41.6390199,34.8862253 41.277232,35.3804762 40.7492432,35.4621768 C40.7002965,35.4697508 40.6508404,35.4735546 40.6013111,35.4735546 L38.5816103,35.4724805 C38.240514,34.53185 37.3508981,33.8610657 36.3071658,33.8610657 C35.2634335,33.8610657 34.3738176,34.53185 34.0327212,35.4724805 L31.549733,35.4735546 C31.0154605,35.4735546 30.5823471,35.0404412 30.5823471,34.5061687 C30.5823471,34.4566394 30.5861509,34.4071833 30.5937248,34.3582366 L35.1195139,5.1104211 C35.2012145,4.58243237 35.6954654,4.2206444 36.2234542,4.30234505 Z" id="Combined-Shape" stroke="#79589F" stroke-width="0.967385923" fill="#FFFFFF" transform="translate(36.075591, 36.499996) rotate(-23.000000) translate(-36.075591, -36.499996) "></path>
                    <circle id="Oval" fill="#79589F" cx="36.2877907" cy="36.2877907" r="1"></circle>
                </g>
            </g>
        </g>
    </g>
</svg>