<svg xmlns="http://www.w3.org/2000/svg" viewBox="0 0 48.94 59"><title>medal-1</title><g id="Layer_2" data-name="Layer 2"><g id="Layer_1-2" data-name="Layer 1"><g id="medal-1"><path d="M48.6,11.26l-5.78-10,0-.05a2.35,2.35,0,0,0-.36-.47h0A2.42,2.42,0,0,0,42,.38L41.81.3a2,2,0,0,0-.4-.17l-.16,0A2.33,2.33,0,0,0,40.66,0H8.28a2.41,2.41,0,0,0-.6.08L7.53.13A2.09,2.09,0,0,0,7.12.3L7,.38a2.22,2.22,0,0,0-.45.34h0a2.79,2.79,0,0,0-.36.47l0,.05-5.78,10a2.53,2.53,0,0,0,0,2.5l10,17.38A17.36,17.36,0,0,0,7,41.48a17.52,17.52,0,0,0,35,0,17.36,17.36,0,0,0-3.42-10.34l10-17.38A2.48,2.48,0,0,0,48.6,11.26ZM30.55,15l-5.2,9c-.29,0-.58,0-.88,0s-.59,0-.89,0l-5.19-9ZM8.28,7.5,18.42,25.06a17.38,17.38,0,0,0-4.4,2.4L5.39,12.51ZM31.21,42.15l-1.56,1.52L30,45.82a2.5,2.5,0,0,1-2.46,2.92,2.56,2.56,0,0,1-1.17-.29l-1.92-1-1.93,1a2.5,2.5,0,0,1-3.63-2.63l.37-2.15-1.56-1.52a2.51,2.51,0,0,1-.63-2.56,2.48,2.48,0,0,1,2-1.7l2.15-.32,1-2a2.5,2.5,0,0,1,4.48,0l1,2,2.16.32a2.49,2.49,0,0,1,1.38,4.26Zm3.71-14.69a17.55,17.55,0,0,0-4.4-2.4L40.66,7.5l2.89,5Z"/></g></g></g></svg>