<svg xmlns="http://www.w3.org/2000/svg" viewBox="0 0 354 217" width="354" height="217"><path d="M12.92 12h328.16c7.132 0 12.92 8.127 12.92 18.142v168.716c0 10.015-5.788 18.142-12.92 18.142H12.92C5.788 217 0 208.873 0 198.858V30.142C0 20.127 5.788 12 12.92 12z" fill="#EAF1F5"/><path d="M122.135 14.513l133.664 51.665c4.68 1.812 6.983 7.047 5.187 11.72l-31.071 80.18a9.068 9.068 0 01-11.736 5.181L84.515 111.593c-4.68-1.811-6.983-7.046-5.188-11.72L110.4 19.694a9.066 9.066 0 0111.736-5.18z" fill="#FBFBFB"/><path fill-rule="evenodd" clip-rule="evenodd" d="M124.457.02c-3.011.164-5.496.852-8.235 2.283-3.011 1.558-5.333 3.66-7.22 6.504-1.396 2.101-1.832 3.315-16.506 45.76-12.788 36.99-15.128 43.965-15.363 45.867-.853 6.975 2.448 14.076 8.543 18.442 1.578 1.123 4.897 2.318 62.633 22.336l60.964 21.141-5.115 14.746c-3.845 11.122-5.043 14.909-4.879 15.38.435 1.25 1.306 1.847 3.537 2.373 4.679 1.087 9.396.525 13.477-1.594 3.083-1.595 4.97-3.189 7.074-6.015l1.632-2.174 18.121-52.643 18.12-52.643-.036-2.229c-.091-6.757-3.12-12.608-8.561-16.557-1.415-1.014-6.149-2.717-62.633-22.3l-61.128-21.195 2.395-6.956c1.832-5.308 2.34-7.12 2.176-7.627-.199-.58-.743-.851-3.609-1.83-2.83-.978-3.701-1.159-5.387-1.068zm-10.884 44.691l-13.531 39.13-1.76-.182c-2.52-.271-5.967.145-8.452 1.051l-2.159.78 12.806-36.757 12.806-36.774 1.342-1.522c2.485-2.826 6.258-4.674 9.94-4.873 1.143-.054 2.177-.072 2.304-.036.127.036-5.859 17.68-13.296 39.183zm17.885-17.59l-.907 2.609-2.63-.906-2.63-.906.907-2.608.907-2.609 2.63.906 2.63.906-.907 2.608zm10.539 3.642l-.907 2.608-2.63-.906-2.63-.905.834-2.392c.453-1.322.961-2.463 1.106-2.536.145-.072 1.361.236 2.703.707l2.431.833-.907 2.59zm10.756 3.804l-.78 2.554-2.648-.906-2.649-.906.907-2.608.907-2.609 2.522.978 2.521.979-.78 2.518zm10.629 3.587l-.907 2.608-2.63-.906-2.63-.905.907-2.609.907-2.609 2.63.906 2.63.906-.907 2.609zm10.539 3.623l-.907 2.608-2.63-.905-2.63-.906.907-2.609.906-2.609 2.631.906 2.63.906-.907 2.609zm10.538 3.64l-.907 2.61-2.612-.924-2.63-.906.907-2.609.907-2.608 2.63.905 2.63.906-.925 2.627zm10.539 3.642l-.907 2.609-2.63-.906-2.63-.906.907-2.609.907-2.608 2.63.906 2.63.905-.907 2.609zm10.539 3.641l-.907 2.609-2.631-.906-2.63-.906.907-2.608.907-2.609 2.63.906 2.63.906-.906 2.608zm10.538 3.623l-.907 2.609-2.63-.906-2.63-.906.834-2.39c.454-1.323.962-2.465 1.107-2.537.145-.072 1.378.235 2.702.707l2.431.833-.907 2.59zm10.774 3.804l-.779 2.555-2.794-.96-2.811-.96.834-2.392c.454-1.322.961-2.463 1.125-2.536.163-.072 1.396.29 2.757.815l2.467.942-.799 2.536zm10.539 3.642l-.78 2.554-2.648-.906-2.648-.906.907-2.608.906-2.609 2.522.978 2.521.979-.78 2.518zm12.788 2.337c2.848 2.137 4.861 5.724 5.278 9.365.218 1.939.036 4.203-.344 4.076-.109-.036-.672-.779-1.27-1.666-2.213-3.297-6.385-6.866-10.122-8.696l-1.777-.87.78-2.535.78-2.537 1.07.218c1.542.344 4.19 1.576 5.605 2.645zm-6.258 9.6c3.156 2.32 5.423 4.982 7.31 8.587l1.632 3.134-11.88 34.365c-6.549 18.913-11.972 34.347-12.063 34.311-.09-.036-.834-.725-1.632-1.54-1.651-1.685-4.1-3.569-7.038-5.453-1.832-1.177-7.002-3.025-65.481-23.387-34.917-12.137-63.793-22.318-64.174-22.608a77.07 77.07 0 00-2.086-1.503c-.762-.544-2.123-1.721-2.993-2.609-1.832-1.848-1.832-2.228-.018-4.547 3.337-4.275 8.343-6.068 13.948-5 1.977.38 2.975.399 3.701.09l.979-.434 9.614-27.807c5.296-15.29 9.74-27.861 9.903-27.934.164-.072 26.791 9.058 59.169 20.271l58.896 20.416 2.213 1.649zM130.061 44.694c-1.142.218-1.795.743-2.14 1.757-.363 1.033-.163 1.866.653 2.736.889.942 1.796 1.087 3.102.47 1.578-.76 1.959-1.847 1.179-3.405-.635-1.268-1.542-1.793-2.794-1.558zm43.751 15.217c-11.409-1.793-22.673 2.717-29.475 11.83-8.108 10.832-7.873 25.85.562 36.629 2.104 2.699 5.55 5.742 8.434 7.463 3.03 1.794 8.598 3.732 12.099 4.167 11.01 1.413 22.256-3.442 28.695-12.373 8.308-11.503 7.274-27.517-2.43-38.133-4.571-4.963-11.192-8.532-17.885-9.583zm50.752 17.97c-.726.345-1.324.906-1.487 1.396-.345.996.634 3.134 1.578 3.46 1.523.525 3.174-.218 3.664-1.649.363-1.032.163-1.866-.653-2.735-.907-.942-1.814-1.087-3.102-.471zm-41.592-8.64c13.205 8.912 15.037 27.553 3.773 38.368-5.333 5.127-12.915 7.753-20.152 7.011-3.338-.345-8.544-2.21-11.355-4.076-10.412-6.902-14.257-20.851-8.725-31.702 5.152-10.09 15.999-15.38 27.371-13.387 1.814.307 7.401 2.644 9.088 3.786zM126.76 55.11c-1.959.108-3.12 2.065-2.267 3.804 1.197 2.427 4.77 1.902 5.079-.761.199-1.63-1.197-3.134-2.812-3.043zm95.029 32.897c-1.923.272-2.939 2.283-2.014 4.004 1.016 1.866 4.227 1.63 4.916-.38.617-1.776-1.07-3.877-2.902-3.624zm-60.094-16.576l-1.124.435-4.662 13.46c-4.39 12.663-4.625 13.496-4.299 14.275.853 1.956.943 1.956 17.776.2 8.652-.906 16.144-1.83 16.615-2.03 2.413-1.032 2.231-3.007-.562-5.76-10.974-10.797-21.222-20.525-21.857-20.742-.417-.164-1.27-.073-1.887.162zm9.723 14.656c5.913 5.742 7.201 7.137 6.657 7.228-2.758.398-19.209 2.01-19.481 1.92-.254-.09.471-2.464 2.448-8.224 1.542-4.457 2.848-8.098 2.902-8.062.091 0 3.447 3.225 7.474 7.138zm-48.249-20.58c-1.923.11-3.175 2.156-2.34 3.841 1.179 2.392 4.843 1.83 5.151-.797.182-1.63-1.197-3.134-2.811-3.043zm95.01 32.898c-.508.073-1.233.453-1.632.834-2.104 2.101.471 5.543 3.174 4.239 2.648-1.25 1.36-5.471-1.542-5.073zM119.867 75.96c-.979-.18-2.448.816-2.829 1.903-.689 2.01 1.796 4.202 3.718 3.278 2.485-1.195 1.887-4.692-.889-5.18zm94.703 32.952c-2.848.181-3.265 4.149-.563 5.073 2.195.76 4.172-1.178 3.41-3.352-.417-1.213-1.396-1.811-2.847-1.721zm-99.763-22.155c-1.252.598-1.76 1.902-1.288 3.243 1.016 2.844 5.423 1.974 5.224-1.033-.145-1.938-2.14-3.061-3.936-2.21zm95.899 32.481c-.798.036-2.032 1.449-2.14 2.482-.236 2.029 2.249 3.605 4.045 2.554 2.031-1.159 1.759-4.04-.436-4.746-.562-.163-1.215-.29-1.469-.29zm-99.509-22.083c-1.306.634-1.796 1.975-1.215 3.406.834 2.047 3.609 2.265 4.77.38 1.397-2.228-1.142-4.927-3.555-3.786zm95.754 32.644c-2.594.852-2.684 4.257-.127 5.127 2.231.779 4.336-1.54 3.302-3.641-.563-1.105-2.105-1.83-3.175-1.486zm-118.7-21.72c3.157 1.648 2.976 1.268 2.032 4.003-.961 2.772-1.088 2.808-3.101.942-1.778-1.666-3.483-4.365-4.01-6.358-.253-.978-.434-1.884-.398-2.011.036-.127.998.453 2.14 1.268 1.143.815 2.63 1.776 3.338 2.156zm12.516 7.753l-.906 2.609-2.63-.906-2.63-.906.834-2.391c.453-1.322.961-2.463 1.106-2.536.145-.072 1.379.236 2.703.707l2.43.833-.907 2.59zm10.539 3.642l-.889 2.608-2.63-.906-2.63-.905.834-2.392c.454-1.322.962-2.463 1.107-2.536.145-.072 1.378.236 2.703.707l2.43.833-.925 2.591zm10.756 3.786l-.78 2.554-2.648-.906-2.648-.906.907-2.608.907-2.609 2.521.978 2.521.979-.78 2.518zm10.539 3.641l-.78 2.554-2.648-.906-2.649-.905.907-2.609.907-2.609 2.522.979 2.521.978-.78 2.518zm10.647 3.587l-.907 2.608-2.63-.905-2.63-.906.907-2.609.907-2.608 2.63.905 2.63.906-.907 2.609zm10.539 3.641l-.907 2.609-2.63-.906-2.63-.906.907-2.609.907-2.608 2.63.906 2.63.905-.907 2.609zm10.538 3.623l-.907 2.609-2.63-.906-2.63-.906.907-2.609.907-2.608 2.63.906 2.63.905-.907 2.609zm10.539 3.641l-.907 2.609-2.63-.906-2.63-.906.834-2.391c.454-1.322.962-2.464 1.107-2.536.145-.073 1.378.235 2.702.706l2.431.834-.907 2.59zm10.539 3.641l-.907 2.609-2.63-.906-2.631-.906.835-2.391c.453-1.322.961-2.463 1.106-2.536.145-.072 1.379.236 2.703.707l2.431.833-.907 2.59zm10.756 3.805l-.78 2.554-2.812-.96-2.793-.96.834-2.392c.454-1.322.962-2.463 1.125-2.536.163-.072 1.397.29 2.757.815l2.467.942-.798 2.537zm10.538 3.623l-.78 2.554-2.648-.906-2.648-.906.907-2.608.907-2.609 2.521.978 2.521.979-.78 2.518zm12.843 2.808c2.63 1.793 4.806 4.039 6.13 6.322l.962 1.685-.78 2.282-.78 2.283-1.179-1.812c-2.394-3.677-5.278-6.014-10.067-8.079l-2.648-1.142.87-2.5.871-2.499 2.213 1.014c1.215.489 3.21 1.612 4.408 2.446zm-2.413 11.159c4.317 4.166 5.387 11.249 2.485 16.322-2.612 4.565-7.763 7.463-12.697 7.137l-1.27-.091 4.39-12.662c5.006-14.492 4.299-13.424 7.092-10.706z" fill="url(#paint0_linear)"/><path d="M168.788 122.064c17.531 0 31.742-14.193 31.742-31.702 0-17.508-14.211-31.702-31.742-31.702s-31.743 14.194-31.743 31.702c0 17.509 14.212 31.702 31.743 31.702z" fill="url(#paint1_linear)"/><path d="M184.514 95.253l-26.066 5.815 8-25.452 18.066 19.637z" fill="#FBFBFB"/><path d="M31.54 112.303c-.715.697-1.075 1.482-1.146 2.434l-.057.798 3.886 8.846 3.885 8.847-3.954 1.848c-3.747 1.757-3.975 1.875-4.176 2.277-.535 1.061-.341 2.272.47 2.978.715.601 21.981 10.293 22.516 10.268a2.072 2.072 0 001.448-.647c.375-.381 7.354-22.708 7.376-23.621.036-1.068-.737-2.021-1.898-2.324-.447-.112-.68-.041-4.483 1.592l-4.015 1.711-3.996-8.797-3.996-8.797-.632-.49c-.353-.27-.947-.564-1.32-.66-1.268-.32-1.754-.186-5.719 1.602-3.183 1.389-3.716 1.677-4.19 2.135zm-9.172 35.006c-2.347 1.558-3.808 4.396-3.807 7.435.002 2.152.074 2.35 4.076 11.309 4.064 9.096 4.114 9.172 5.853 10.696 1.772 1.558 4.072 2.338 6.493 2.242l1.07-.05 24.974-11.107c24.257-10.787 25.95-11.478 26.913-12.73.15-.182.274-.385.46-.633 1.395-1.839 2.05-4.482 1.706-6.957-.14-1.054-.183-1.15-4.026-9.753l-3.886-8.699-.743-.884c-1.67-1.998-3.91-3.199-6.351-3.407-1.862-.17-2.45-.006-5.71 1.434-2.744 1.225-2.931 1.325-3.278 1.809-.7.986-.784 2.059-.257 3.237.508 1.137 1.62 1.889 2.81 1.883.431.005 1.084-.238 3.07-1.125 2.164-.967 2.596-1.11 3.115-1.096.755.025 1.718.514 2.198 1.106.255.313 1.445 2.903 3.853 8.367l3.484 7.909-.106.689c-.065.374-.246.931-.414 1.22l-.302.546-24.75 11.056-24.762 11.062-.648-.154a4.75 4.75 0 01-1.185-.506l-.524-.358-3.632-8.056c-3.485-7.727-3.638-8.07-3.624-8.668.015-.335.1-.85.207-1.128.378-1.006.7-1.249 3.443-2.474 2.179-.973 2.56-1.193 2.896-1.59.737-.904.877-2.183.363-3.333-.502-1.124-1.384-1.765-2.552-1.9-.578-.071-.818.02-3.174 1.04-1.413.614-2.864 1.328-3.253 1.568z" fill="#D7DDE5"/><path fill-rule="evenodd" clip-rule="evenodd" d="M274.737 85.036c-2.031-.38-2.666.308-4.135 4.438a720.091 720.091 0 01-3.737 10.09l-2.63 6.957-.998-.344c-1.269-.453-2.43-.363-3.609.235l-.925.489-2.504 6.486c-1.378 3.568-3.101 8.297-3.845 10.507-1.342 4.003-1.342 4.039-1.016 5.09.345 1.087 1.705 2.319 3.066 2.808l.635.217-2.34 6.866c-2.304 6.703-2.34 6.866-2.032 7.536.218.453.744.888 1.578 1.322 2.104 1.069 41.375 15.181 42.191 15.145 1.56-.054 1.741-.362 4.353-7.518l2.394-6.521 1.343.289c1.541.345 2.376.272 3.428-.271 1.106-.58 2.158-3.026 5.623-13.08l2.975-8.641-.436-.96c-.544-1.232-1.396-2.011-2.702-2.482l-1.034-.362 1.396-3.949 1.397-3.949-2.158-5.598c-2.504-6.485-4.825-12.246-5.261-13.061-.235-.417-.798-.78-2.194-1.34-2.485-1.051-28.061-10.254-28.823-10.399zm22.51 10.851l5.768 2.047-2.412 6.54c-1.941 5.308-2.376 6.648-2.231 7.029.163.416.707.67 3.736 1.739 1.959.688 4.535 1.685 5.732 2.192l2.177.924-1.052 2.989-1.052 2.989-7.111-2.573c-3.899-1.413-13.15-4.764-20.551-7.463l-13.44-4.909 1.179-3.334c.653-1.829 2.321-6.322 3.7-9.981l2.521-6.649 8.616 3.207c4.77 1.775 11.246 4.13 14.42 5.253zm-30.781 15.978c.544.38.526 1.431-.163 8.587l-.454 4.673 1.941-2.753c1.07-1.504 2.83-3.877 3.9-5.254l1.959-2.518 2.557.834 2.558.833-.145.797c-.073.435-.98 3.496-1.995 6.793a823.323 823.323 0 00-2.431 8.062l-.562 2.047-1.941-.689-1.923-.688.835-2.826c.453-1.558 1.451-4.565 2.194-6.703.78-2.21 1.252-3.822 1.107-3.731-.145.072-.78.833-1.379 1.684-.616.852-2.503 3.37-4.226 5.634l-3.102 4.094-1.469-.688c-.816-.381-1.506-.815-1.542-.96-.036-.145.218-3.116.581-6.612.344-3.497.634-6.576.634-6.866 0-.272-.943 1.757-2.085 4.529-1.143 2.753-2.377 5.688-2.758 6.521l-.671 1.486-1.832-.652-1.832-.653.472-.923c.254-.508 1.832-4.076 3.519-7.935 1.669-3.859 3.21-7.21 3.41-7.445.345-.417.508-.399 2.376.253 1.106.417 2.213.888 2.467 1.069zm25.467 9.837c2.485 2.3 2.467 5.996-.055 8.387-1.741 1.649-4.172 1.92-7.292.815l-1.777-.634-1.088 3.08-1.089 3.079-2.086-.742-2.086-.743 1.415-3.532c.78-1.939 2.213-5.761 3.174-8.478l1.742-4.946 1.124.29c.617.163 2.449.779 4.063 1.377 2.485.942 3.12 1.268 3.955 2.047zm14.021 10.724l-1.85 4.855 1.052.38 1.052.381-.526 1.485-.526 1.486-1.034-.363-1.034-.362-.689 1.938-.69 1.939-1.832-.634-1.832-.634.672-1.902.671-1.903-3.701-1.485-3.7-1.485.417-1.16c.399-1.105.671-1.359 5.46-5.09l5.043-3.949 2.412.851 2.412.851-1.777 4.801zm-20.134-10.145c-.109.055-.599 1.214-1.088 2.573l-.871 2.463 1.27.453c1.614.562 2.866.453 3.664-.362.78-.779.907-1.123.834-2.283-.036-.615-.272-1.105-.726-1.539-.671-.634-2.702-1.486-3.083-1.305zm16.125 7.989c-.526.489-1.85 1.631-2.938 2.518-1.089.888-1.941 1.703-1.923 1.83.018.109.798.471 1.723.797l1.687.598 1.234-3.225c.671-1.775 1.215-3.26 1.215-3.315-.018-.054-.472.308-.998.797zm-12.751 14.058l9.504 3.351-2.104 5.96-2.104 5.96-14.819-5.398a3585.206 3585.206 0 00-20.569-7.428l-5.75-2.029 2.104-5.96 2.104-5.959 11.046 4.075c6.095 2.247 15.364 5.58 20.588 7.428z" fill="#D7DDE5" stroke="#D7DDE5" stroke-width="2"/><defs><linearGradient id="paint0_linear" x1="86.928" y1="70.604" x2="245.611" y2="125.499" gradientUnits="userSpaceOnUse"><stop stop-color="#318AC7"/><stop offset=".49" stop-color="#54A9BA"/><stop offset="1" stop-color="#6FD9DA"/></linearGradient><linearGradient id="paint1_linear" x1="137.045" y1="90.363" x2="200.53" y2="90.363" gradientUnits="userSpaceOnUse"><stop stop-color="#318AC7"/><stop offset=".49" stop-color="#54A9BA"/><stop offset="1" stop-color="#6FD9DA"/></linearGradient></defs></svg>
